<?xml version="1.0" encoding="utf-8" standalone="no"?>
<!DOCTYPE svg PUBLIC "-//W3C//DTD SVG 1.1//EN"
  "http://www.w3.org/Graphics/SVG/1.1/DTD/svg11.dtd">
<svg xmlns:xlink="http://www.w3.org/1999/xlink" width="349.2pt" height="328.22224pt" viewBox="0 0 349.2 328.22224" xmlns="http://www.w3.org/2000/svg" version="1.1">
 <metadata>
  <rdf:RDF xmlns:dc="http://purl.org/dc/elements/1.1/" xmlns:cc="http://creativecommons.org/ns#" xmlns:rdf="http://www.w3.org/1999/02/22-rdf-syntax-ns#">
   <cc:Work>
    <dc:type rdf:resource="http://purl.org/dc/dcmitype/StillImage"/>
    <dc:date>2025-10-04T16:28:12.631688</dc:date>
    <dc:format>image/svg+xml</dc:format>
    <dc:creator>
     <cc:Agent>
      <dc:title>Matplotlib v3.10.0, https://matplotlib.org/</dc:title>
     </cc:Agent>
    </dc:creator>
   </cc:Work>
  </rdf:RDF>
 </metadata>
 <defs>
  <style type="text/css">*{stroke-linejoin: round; stroke-linecap: butt}</style>
 </defs>
 <g id="figure_1">
  <g id="patch_1">
   <path d="M 0 328.22224 
L 349.2 328.22224 
L 349.2 0 
L 0 0 
L 0 328.22224 
z
" style="fill: none; opacity: 0"/>
  </g>
  <g id="axes_1">
   <g id="line2d_1">
    <path d="M 326.781818 173.704162 
L 326.436395 167.614562 
L 325.862076 161.551001 
L 325.060334 155.522066 
L 324.032961 149.536273 
L 322.782069 143.60205 
L 321.310084 137.727726 
L 319.619742 131.921524 
L 317.714083 126.191542 
L 315.596448 120.54575 
L 313.270472 114.99197 
L 310.740076 109.537874 
L 308.009467 104.190967 
L 305.083122 98.958578 
L 301.96579 93.847853 
L 298.662477 88.865742 
L 295.178441 84.018991 
L 291.519187 79.314133 
L 287.690452 74.757476 
L 283.6982 70.355103 
L 279.548613 66.112852 
L 275.24808 62.036319 
L 270.803188 58.130844 
L 266.22071 54.401507 
L 261.5076 50.853122 
L 256.670975 47.490226 
L 251.718112 44.317082 
L 246.656431 41.337664 
L 241.493485 38.555658 
L 236.236954 35.974459 
L 230.894626 33.59716 
L 225.474392 31.426554 
L 219.984227 29.465131 
L 214.432188 27.715073 
L 208.826393 26.178252 
L 203.175016 24.856228 
L 197.486269 23.75025 
L 191.768395 22.861253 
L 186.029655 22.189858 
L 180.278314 21.736372 
L 174.52263 21.50079 
L 168.770844 21.482791 
L 163.031166 21.681748 
L 157.311764 22.096721 
L 151.620754 22.726464 
L 145.966183 23.569428 
L 140.356026 24.62376 
L 134.798167 25.887313 
L 129.300393 27.357644 
L 123.870382 29.032022 
L 118.515689 30.907431 
L 113.243739 32.980576 
L 108.061818 35.247888 
L 102.977058 37.705531 
L 97.996431 40.349408 
L 93.126738 43.175166 
L 88.3746 46.178206 
L 83.746451 49.353687 
L 79.248524 52.696537 
L 74.88685 56.201459 
L 70.667242 59.862939 
L 66.595295 63.675257 
L 62.676372 67.632491 
L 58.915602 71.728534 
L 55.317869 75.957095 
L 51.887811 80.311714 
L 48.629808 84.78577 
L 45.547981 89.37249 
L 42.646185 94.064963 
L 39.928006 98.856144 
L 37.396753 103.738872 
L 35.055458 108.705875 
L 32.90687 113.749783 
L 30.953454 118.863139 
L 29.197387 124.038411 
L 27.640553 129.267999 
L 26.284549 134.544251 
L 25.130675 139.859471 
L 24.179938 145.205934 
L 23.43305 150.575891 
L 22.890428 155.961586 
L 22.552196 161.355264 
L 22.418182 166.749185 
L 22.487922 172.13563 
L 22.760662 177.506919 
L 23.235358 182.855416 
L 23.91068 188.173543 
L 24.785012 193.453789 
L 25.856462 198.688723 
L 27.122856 203.871001 
L 28.58175 208.993381 
L 30.230432 214.048727 
L 32.065924 219.030025 
L 34.08499 223.930389 
L 36.284142 228.743071 
L 38.659643 233.461472 
L 41.207517 238.079149 
L 43.923552 242.589825 
L 46.803308 246.987397 
L 49.842125 251.265944 
L 53.035129 255.419737 
L 56.377242 259.443242 
L 59.863186 263.331133 
L 63.487496 267.078296 
L 67.244525 270.679835 
L 71.128455 274.131079 
L 75.133304 277.42759 
L 79.252936 280.565166 
L 83.481072 283.539847 
L 87.811294 286.347921 
L 92.237064 288.985927 
L 96.751724 291.45066 
L 101.348514 293.739176 
L 106.020575 295.848792 
L 110.760965 297.777093 
L 115.562668 299.521931 
L 120.418601 301.08143 
L 125.321627 302.453987 
L 130.264569 303.638271 
L 135.240212 304.633229 
L 140.241321 305.438081 
L 145.26065 306.052325 
L 150.290947 306.475734 
L 155.324975 306.708356 
L 160.35551 306.750513 
L 165.375363 306.6028 
L 170.377381 306.266083 
L 175.354463 305.741496 
L 180.299569 305.03044 
L 185.205726 304.13458 
L 190.066045 303.05584 
L 194.873723 301.796401 
L 199.622058 300.358694 
L 204.304458 298.745402 
L 208.914445 296.959449 
L 213.44567 295.003997 
L 217.891919 292.882441 
L 222.247122 290.598403 
L 226.505361 288.155728 
L 230.660877 285.558472 
L 234.708081 282.810904 
L 238.641558 279.917489 
L 242.456076 276.882891 
L 246.146592 273.711958 
L 249.70826 270.409717 
L 253.136437 266.981368 
L 256.426687 263.432272 
L 259.574788 259.767946 
L 262.57674 255.994054 
L 265.428764 252.116395 
L 268.127314 248.1409 
L 270.669076 244.073617 
L 273.050971 239.920705 
L 275.270165 235.688426 
L 277.324066 231.383132 
L 279.210331 227.011258 
L 280.926864 222.579311 
L 282.471824 218.093862 
L 283.843622 213.561535 
L 285.040925 208.988998 
L 286.062654 204.38295 
L 286.907989 199.750119 
L 287.576366 195.097242 
L 288.067478 190.431064 
L 288.381274 185.758322 
L 288.517961 181.08574 
L 288.477996 176.420016 
L 288.262093 171.767813 
L 287.871214 167.135751 
L 287.30657 162.530397 
L 286.569619 157.958254 
L 285.662061 153.425753 
L 284.585836 148.939247 
L 283.34312 144.504994 
L 281.936318 140.12916 
L 280.368067 135.817797 
L 278.641224 131.576847 
L 276.758864 127.412126 
L 274.724276 123.329318 
L 272.540954 119.333968 
L 270.212596 115.431475 
L 267.743092 111.627083 
L 265.136523 107.925875 
L 262.397152 104.332766 
L 259.529416 100.852497 
L 256.537921 97.489627 
L 253.427435 94.248531 
L 250.202878 91.133388 
L 246.869316 88.148183 
L 243.431953 85.296697 
L 239.896123 82.582503 
L 236.267281 80.008964 
L 232.550996 77.579225 
L 228.752941 75.296214 
L 224.878886 73.162633 
L 220.934686 71.180962 
L 215.576909 68.77889 
L 210.119248 66.655541 
L 204.576142 64.814867 
L 198.962173 63.260075 
L 193.292032 61.993623 
L 187.580474 61.017216 
L 181.842284 60.331808 
L 176.092238 59.9376 
L 170.345065 59.834047 
L 164.615408 60.019859 
L 158.917787 60.493014 
L 153.266565 61.250761 
L 147.675909 62.289635 
L 142.159754 63.605468 
L 136.73177 65.193404 
L 131.405328 67.047914 
L 126.193466 69.162815 
L 121.108857 71.531289 
L 116.163782 74.145906 
L 111.370094 76.998641 
L 106.739194 80.080904 
L 102.282004 83.383562 
L 98.00894 86.896965 
L 93.929887 90.610976 
L 90.05418 94.514998 
L 86.390579 98.598004 
L 82.94725 102.848569 
L 79.73175 107.254899 
L 76.751007 111.804869 
L 74.011308 116.486048 
L 71.518288 121.285741 
L 69.276913 126.191016 
L 67.291476 131.188745 
L 65.565588 136.265635 
L 64.102174 141.408266 
L 62.903465 146.603122 
L 61.971001 151.836631 
L 61.305628 157.0952 
L 60.9075 162.365248 
L 60.776084 167.633241 
L 60.910164 172.885729 
L 61.307846 178.10938 
L 61.966572 183.291012 
L 62.883124 188.417628 
L 64.053643 193.476446 
L 65.473635 198.454936 
L 67.137994 203.340846 
L 69.041011 208.122233 
L 71.1764 212.787495 
L 73.537311 217.325397 
L 76.116355 221.725096 
L 78.905625 225.976171 
L 81.896719 230.068646 
L 85.080767 233.993012 
L 88.448451 237.740249 
L 91.99004 241.301849 
L 95.695412 244.669832 
L 99.554082 247.836766 
L 103.555236 250.79578 
L 107.687757 253.540583 
L 111.940257 256.065474 
L 116.301107 258.365352 
L 120.758472 260.435728 
L 125.300338 262.272734 
L 129.914551 263.873126 
L 134.58884 265.23429 
L 139.310859 266.354246 
L 144.068214 267.23165 
L 148.848497 267.865789 
L 153.639319 268.256584 
L 158.428339 268.404587 
L 163.203302 268.310968 
L 167.952062 267.977518 
L 172.662622 267.406635 
L 177.323157 266.601313 
L 181.922045 265.565134 
L 186.447902 264.302253 
L 190.8896 262.817386 
L 195.236305 261.11579 
L 199.477495 259.203248 
L 203.602989 257.086054 
L 207.602973 254.770987 
L 211.468018 252.265295 
L 215.189109 249.576672 
L 218.75766 246.713234 
L 222.165537 243.683497 
L 225.405075 240.496349 
L 228.469094 237.16103 
L 231.350917 233.687099 
L 234.044384 230.084412 
L 236.543861 226.363093 
L 238.844257 222.533505 
L 240.941028 218.60622 
L 242.830191 214.591995 
L 244.508324 210.501737 
L 245.972578 206.346478 
L 247.220678 202.137342 
L 248.250921 197.885518 
L 249.062185 193.602227 
L 249.653921 189.298698 
L 250.026153 184.986132 
L 250.179475 180.675676 
L 250.115045 176.378398 
L 249.834578 172.105249 
L 249.340336 167.867046 
L 248.635123 163.674437 
L 247.722269 159.537876 
L 246.60562 155.4676 
L 245.289524 151.4736 
L 243.778817 147.565599 
L 242.078807 143.753024 
L 240.195253 140.04499 
L 238.134352 136.450274 
L 235.902719 132.977295 
L 233.507361 129.634093 
L 230.955665 126.428314 
L 228.255366 123.367191 
L 225.414532 120.457526 
L 222.441539 117.705678 
L 219.345043 115.117548 
L 216.133957 112.698568 
L 212.81743 110.453688 
L 209.404815 108.387367 
L 205.905646 106.503568 
L 202.329611 104.805746 
L 198.686526 103.296847 
L 194.986309 101.9793 
L 191.238949 100.855018 
L 187.454486 99.925395 
L 183.642976 99.191307 
L 179.814471 98.653112 
L 175.978991 98.310653 
L 172.146495 98.163264 
L 168.326858 98.209775 
L 164.529845 98.448518 
L 160.765084 98.877334 
L 157.042046 99.493587 
L 153.370016 100.294169 
L 149.758073 101.275515 
L 146.215069 102.433615 
L 142.749602 103.764029 
L 139.370001 105.261901 
L 136.084301 106.921975 
L 132.900228 108.738613 
L 129.82518 110.70581 
L 126.866207 112.817218 
L 124.029998 115.066161 
L 121.322868 117.445656 
L 118.750738 119.948437 
L 116.319128 122.566971 
L 114.033143 125.293487 
L 111.897462 128.119992 
L 109.916332 131.038298 
L 107.663011 134.802524 
L 105.663531 138.680463 
L 103.923229 142.655172 
L 102.446317 146.709491 
L 101.235882 150.826115 
L 100.293884 154.987669 
L 99.621155 159.176777 
L 99.217414 163.376142 
L 99.081274 167.568608 
L 99.21026 171.737239 
L 99.600835 175.865379 
L 100.248421 179.936725 
L 101.147431 183.93539 
L 102.291303 187.845962 
L 103.67254 191.653565 
L 105.282745 195.343917 
L 107.112674 198.903382 
L 109.152278 202.319022 
L 111.390756 205.578639 
L 113.816608 208.670823 
L 116.417692 211.584989 
L 119.18128 214.311413 
L 122.09412 216.841264 
L 125.142497 219.166629 
L 128.312296 221.280537 
L 131.589064 223.176981 
L 134.958079 224.850926 
L 138.404409 226.298326 
L 141.912984 227.516125 
L 145.468657 228.502261 
L 149.056271 229.255661 
L 152.660721 229.776239 
L 156.267019 230.064877 
L 159.860358 230.123419 
L 163.426168 229.954645 
L 166.950179 229.562249 
L 170.418476 228.950818 
L 173.817557 228.125795 
L 177.13438 227.093449 
L 180.356419 225.860837 
L 183.471706 224.435767 
L 186.46888 222.826752 
L 189.337225 221.042968 
L 192.066709 219.094202 
L 194.648017 216.990811 
L 197.072586 214.74366 
L 199.332627 212.364078 
L 201.421152 209.863797 
L 203.331995 207.254903 
L 205.059824 204.549773 
L 206.600157 201.76102 
L 207.94937 198.901439 
L 209.104699 195.983946 
L 210.064243 193.021519 
L 210.826962 190.027146 
L 211.392668 187.013766 
L 211.762013 183.994211 
L 211.936482 180.981156 
L 211.918367 177.987064 
L 211.710751 175.024134 
L 211.317485 172.104253 
L 210.743156 169.238944 
L 209.822465 165.888236 
L 208.659137 162.650454 
L 207.264917 159.542918 
L 205.652764 156.581824 
L 203.836749 153.782162 
L 201.831953 151.157636 
L 199.654347 148.720607 
L 197.32068 146.482027 
L 194.848355 144.451404 
L 192.255312 142.636757 
L 189.559897 141.044596 
L 186.780743 139.679907 
L 183.936644 138.546141 
L 181.046427 137.645226 
L 178.128836 136.977578 
L 175.202407 136.542124 
L 172.285355 136.336341 
L 169.395461 136.356293 
L 166.549962 136.596686 
L 163.76545 137.050927 
L 161.057775 137.71119 
L 158.441956 138.568492 
L 155.932095 139.612772 
L 153.541304 140.832979 
L 151.281636 142.217163 
L 149.164025 143.752575 
L 147.198232 145.425761 
L 145.392811 147.22267 
L 143.755063 149.128758 
L 142.291024 151.129096 
L 140.808785 153.561649 
L 139.574703 156.077362 
L 138.591699 158.651732 
L 137.860339 161.260405 
L 137.378876 163.879399 
L 137.143327 166.485315 
L 137.147558 169.055546 
L 137.383397 171.568473 
L 137.840759 174.003638 
L 138.507787 176.341918 
L 139.371011 178.565671 
L 140.415513 180.658869 
L 141.625108 182.607216 
L 142.982534 184.39824 
L 144.469642 186.021371 
L 146.067599 187.467999 
L 147.757092 188.731507 
L 149.774883 189.945471 
L 151.857288 190.910637 
L 153.975213 191.626706 
L 156.100197 192.096656 
L 158.204769 192.326607 
L 160.262786 192.325656 
L 162.249747 192.105662 
L 164.143078 191.68101 
L 165.922384 191.068343 
L 167.569671 190.286267 
L 169.245976 189.229214 
L 170.717947 188.014238 
L 171.97231 186.673649 
L 173.000434 185.24063 
L 173.798344 183.748604 
L 174.366656 182.230618 
L 174.71043 180.71874 
L 174.838946 179.243486 
L 174.745468 177.681768 
L 174.425889 176.235548 
L 173.908188 174.935434 
L 173.224268 173.806788 
L 173.148058 173.704162 
L 173.148058 173.704162 
" clip-path="url(#p7aa5766496)" style="fill: none; stroke: #ee82ee; stroke-opacity: 0.9; stroke-width: 1.2; stroke-linecap: square"/>
   </g>
   <g id="patch_2">
    <path d="M 201.221457 25.733093 
Q 132.23327 84.515459 64.096089 142.572712 
" style="fill: none; stroke: #ff00ff; stroke-linecap: round"/>
    <path d="M 68.437863 141.500798 
L 64.096089 142.572712 
L 65.843623 138.456145 
" style="fill: none; stroke: #ff00ff; stroke-linecap: round"/>
   </g>
   <g id="patch_3">
    <path d="M 63.708988 144.812698 
Q 194.251896 159.14932 323.683451 173.36389 
" style="fill: none; stroke: #ff00ff; stroke-linecap: round"/>
    <path d="M 319.92569 170.939176 
L 323.683451 173.36389 
L 319.489023 174.91527 
" style="fill: none; stroke: #ff00ff; stroke-linecap: round"/>
   </g>
   <g id="patch_4">
    <path d="M 325.393594 172.26416 
Q 253.530132 97.720335 182.442635 23.981419 
" style="fill: none; stroke: #ff00ff; stroke-linecap: round"/>
    <path d="M 183.778953 28.249235 
L 182.442635 23.981419 
L 186.658679 25.473055 
" style="fill: none; stroke: #ff00ff; stroke-linecap: round"/>
   </g>
   <g id="patch_5">
    <path d="M 178.715473 22.988257 
Q 102.092583 84.365612 26.342291 145.043987 
" style="fill: none; stroke: #ff00ff; stroke-linecap: round"/>
    <path d="M 30.714567 144.104195 
L 26.342291 145.043987 
L 28.213823 140.982292 
" style="fill: none; stroke: #ff00ff; stroke-linecap: round"/>
   </g>
   <g id="patch_6">
    <path d="M 25.010637 148.661006 
Q 75.43642 224.931214 125.245597 300.268791 
" style="fill: none; stroke: #ff00ff; stroke-linecap: round"/>
    <path d="M 124.707903 295.829097 
L 125.245597 300.268791 
L 121.371225 298.03513 
" style="fill: none; stroke: #ff00ff; stroke-linecap: round"/>
   </g>
   <g id="patch_7">
    <path d="M 128.727327 301.92307 
Q 204.471262 261.231781 279.230292 221.069605 
" style="fill: none; stroke: #ff00ff; stroke-linecap: round"/>
    <path d="M 274.760079 221.200764 
L 279.230292 221.069605 
L 276.653091 224.72447 
" style="fill: none; stroke: #ff00ff; stroke-linecap: round"/>
   </g>
   <g id="patch_8">
    <path d="M 281.192501 217.754076 
Q 250.121614 144.767659 219.488653 72.809941 
" style="fill: none; stroke: #ff00ff; stroke-linecap: round"/>
    <path d="M 219.215229 77.273711 
L 219.488653 72.809941 
L 222.895614 75.706942 
" style="fill: none; stroke: #ff00ff; stroke-linecap: round"/>
   </g>
   <g id="patch_9">
    <path d="M 216.362939 70.560355 
Q 146.140682 93.215564 76.982454 115.527493 
" style="fill: none; stroke: #ff00ff; stroke-linecap: round"/>
    <path d="M 81.403319 116.202735 
L 76.982454 115.527493 
L 80.175167 112.395946 
" style="fill: none; stroke: #ff00ff; stroke-linecap: round"/>
   </g>
   <g id="patch_10">
    <path d="M 74.46544 118.436703 
Q 89.808958 184.342461 104.898965 249.159306 
" style="fill: none; stroke: #ff00ff; stroke-linecap: round"/>
    <path d="M 105.939889 244.809998 
L 104.898965 249.159306 
L 102.044073 245.716983 
" style="fill: none; stroke: #ff00ff; stroke-linecap: round"/>
   </g>
   <g id="patch_11">
    <path d="M 107.586276 251.916136 
Q 168.127497 243.381592 227.561629 235.003114 
" style="fill: none; stroke: #ff00ff; stroke-linecap: round"/>
    <path d="M 223.321611 233.581058 
L 227.561629 235.003114 
L 223.879973 237.541896 
" style="fill: none; stroke: #ff00ff; stroke-linecap: round"/>
   </g>
   <g id="patch_12">
    <path d="M 230.543952 232.567355 
Q 227.665603 177.161069 224.845257 122.87131 
" style="fill: none; stroke: #ff00ff; stroke-linecap: round"/>
    <path d="M 223.05547 126.969684 
L 224.845257 122.87131 
L 227.050083 126.762164 
" style="fill: none; stroke: #ff00ff; stroke-linecap: round"/>
   </g>
   <g id="patch_13">
    <path d="M 222.687582 119.685781 
Q 173.673478 117.997347 125.776745 116.347405 
" style="fill: none; stroke: #ff00ff; stroke-linecap: round"/>
    <path d="M 129.705518 118.48393 
L 125.776745 116.347405 
L 129.843228 114.486301 
" style="fill: none; stroke: #ff00ff; stroke-linecap: round"/>
   </g>
   <g id="patch_14">
    <path d="M 122.421656 118.225171 
Q 117.260567 161.225848 112.232712 203.116458 
" style="fill: none; stroke: #ff00ff; stroke-linecap: round"/>
    <path d="M 114.695133 199.383298 
L 112.232712 203.116458 
L 110.723637 198.906626 
" style="fill: none; stroke: #ff00ff; stroke-linecap: round"/>
   </g>
   <g id="patch_15">
    <path d="M 113.818881 206.597748 
Q 150.315297 213.811531 185.7149 220.808521 
" style="fill: none; stroke: #ff00ff; stroke-linecap: round"/>
    <path d="M 182.178631 218.070858 
L 185.7149 220.808521 
L 181.403008 221.994938 
" style="fill: none; stroke: #ff00ff; stroke-linecap: round"/>
   </g>
   <g id="patch_16">
    <path d="M 189.313766 219.483209 
Q 197.630669 189.725031 205.646632 161.043624 
" style="fill: none; stroke: #ff00ff; stroke-linecap: round"/>
    <path d="M 202.643773 164.35766 
L 205.646632 161.043624 
L 206.496146 165.434333 
" style="fill: none; stroke: #ff00ff; stroke-linecap: round"/>
   </g>
   <g id="patch_17">
    <path d="M 204.603457 157.369606 
Q 181.006328 148.924097 158.461843 140.855335 
" style="fill: none; stroke: #ff00ff; stroke-linecap: round"/>
    <path d="M 161.553958 144.086252 
L 158.461843 140.855335 
L 162.901846 140.320193 
" style="fill: none; stroke: #ff00ff; stroke-linecap: round"/>
   </g>
   <g id="patch_18">
    <path d="M 154.744584 141.646541 
Q 147.381335 159.028261 140.454191 175.380509 
" style="fill: none; stroke: #ff00ff; stroke-linecap: round"/>
    <path d="M 143.856024 172.477487 
L 140.454191 175.380509 
L 140.172873 170.91723 
" style="fill: none; stroke: #ff00ff; stroke-linecap: round"/>
   </g>
   <g id="patch_19">
    <path d="M 141.053802 179.089777 
Q 152.897663 184.525347 163.725392 189.494577 
" style="fill: none; stroke: #ff00ff; stroke-linecap: round"/>
    <path d="M 160.924176 186.008434 
L 163.725392 189.494577 
L 159.255748 189.643864 
" style="fill: none; stroke: #ff00ff; stroke-linecap: round"/>
   </g>
   <g id="patch_20">
    <path d="M 167.275819 188.928848 
Q 169.851375 182.251322 172.02459 176.616926 
" style="fill: none; stroke: #ff00ff; stroke-linecap: round"/>
    <path d="M 168.719122 179.629215 
L 172.02459 176.616926 
L 172.451141 181.068673 
" style="fill: none; stroke: #ff00ff; stroke-linecap: round"/>
   </g>
   <g id="PathCollection_1">
    <defs>
     <path id="m04766cd109" d="M 0 2.738613 
C 0.726289 2.738613 1.422928 2.450055 1.936492 1.936492 
C 2.450055 1.422928 2.738613 0.726289 2.738613 0 
C 2.738613 -0.726289 2.450055 -1.422928 1.936492 -1.936492 
C 1.422928 -2.450055 0.726289 -2.738613 0 -2.738613 
C -0.726289 -2.738613 -1.422928 -2.450055 -1.936492 -1.936492 
C -2.450055 -1.422928 -2.738613 -0.726289 -2.738613 0 
C -2.738613 0.726289 -2.450055 1.422928 -1.936492 1.936492 
C -1.422928 2.450055 -0.726289 2.738613 0 2.738613 
z
" style="stroke: #00ffff"/>
    </defs>
    <g clip-path="url(#p7aa5766496)">
     <use xlink:href="#m04766cd109" x="202.742772" y="24.436835" style="fill: #00ffff; stroke: #00ffff"/>
     <use xlink:href="#m04766cd109" x="61.723152" y="144.594608" style="fill: #00ffff; stroke: #00ffff"/>
     <use xlink:href="#m04766cd109" x="326.781818" y="173.704162" style="fill: #00ffff; stroke: #00ffff"/>
     <use xlink:href="#m04766cd109" x="180.278314" y="21.736372" style="fill: #00ffff; stroke: #00ffff"/>
     <use xlink:href="#m04766cd109" x="23.908298" y="146.993692" style="fill: #00ffff; stroke: #00ffff"/>
     <use xlink:href="#m04766cd109" x="126.965195" y="302.869725" style="fill: #00ffff; stroke: #00ffff"/>
     <use xlink:href="#m04766cd109" x="281.976005" y="219.594549" style="fill: #00ffff; stroke: #00ffff"/>
     <use xlink:href="#m04766cd109" x="218.269179" y="69.945362" style="fill: #00ffff; stroke: #00ffff"/>
     <use xlink:href="#m04766cd109" x="74.011308" y="116.486048" style="fill: #00ffff; stroke: #00ffff"/>
     <use xlink:href="#m04766cd109" x="105.605782" y="252.195328" style="fill: #00ffff; stroke: #00ffff"/>
     <use xlink:href="#m04766cd109" x="230.647888" y="234.568042" style="fill: #00ffff; stroke: #00ffff"/>
     <use xlink:href="#m04766cd109" x="224.683341" y="119.75453" style="fill: #00ffff; stroke: #00ffff"/>
     <use xlink:href="#m04766cd109" x="122.659919" y="116.240037" style="fill: #00ffff; stroke: #00ffff"/>
     <use xlink:href="#m04766cd109" x="111.861316" y="206.210821" style="fill: #00ffff; stroke: #00ffff"/>
     <use xlink:href="#m04766cd109" x="188.774354" y="221.413245" style="fill: #00ffff; stroke: #00ffff"/>
     <use xlink:href="#m04766cd109" x="206.485227" y="158.043099" style="fill: #00ffff; stroke: #00ffff"/>
     <use xlink:href="#m04766cd109" x="155.525022" y="139.804234" style="fill: #00ffff; stroke: #00ffff"/>
     <use xlink:href="#m04766cd109" x="139.236232" y="178.255629" style="fill: #00ffff; stroke: #00ffff"/>
     <use xlink:href="#m04766cd109" x="166.556474" y="190.793862" style="fill: #00ffff; stroke: #00ffff"/>
     <use xlink:href="#m04766cd109" x="173.148058" y="173.704162" style="fill: #00ffff; stroke: #00ffff"/>
    </g>
   </g>
   <g id="patch_21">
    <path d="M 165.06207 186.641742 
C 168.493157 186.641742 171.784176 185.278557 174.210321 182.852413 
C 176.636465 180.426268 177.99965 177.135248 177.99965 173.704162 
C 177.99965 170.273076 176.636465 166.982056 174.210321 164.555912 
C 171.784176 162.129767 168.493157 160.766582 165.06207 160.766582 
C 161.630984 160.766582 158.339964 162.129767 155.91382 164.555912 
C 153.487676 166.982056 152.124491 170.273076 152.124491 173.704162 
C 152.124491 177.135248 153.487676 180.426268 155.91382 182.852413 
C 158.339964 185.278557 161.630984 186.641742 165.06207 186.641742 
z
" clip-path="url(#p7aa5766496)" style="fill: #ffffff; stroke: #ffffff; stroke-linejoin: miter"/>
   </g>
  </g>
 </g>
 <defs>
  <clipPath id="p7aa5766496">
   <rect x="7.2" y="7.2" width="334.8" height="313.82224"/>
  </clipPath>
 </defs>
</svg>
